# xmcd CD database file
#
# Track frame offsets:
#	150
#	46200
#	66547
#	96458
#	118863
#	143388
#	202749
#	229325
#	258635
#	290770
#
# Disc length: 4147 seconds
#
# Revision: 0
# Processed by: cddbd v1.5.1PL0 Copyright (c) Steve Scherf et al.
# Submitted via: CDex 1.51
#
DISCID=9b10310a
DTITLE=Hired Help - Alone and Drinkin'
DYEAR=2002
DGENRE=Blues
TTITLE0=Lickin' Stick
TTITLE1=Alone and Drinkin'
TTITLE2=Little Wing
TTITLE3=Bad Axe
TTITLE4=Body and Fender Man
TTITLE5=The World is a Ghetto
TTITLE6=Running Like a Dog
TTITLE7=Bending Like a Willow Tree
TTITLE8=Knocking on Heaven's Door
TTITLE9=If you Love Me Like you Say
EXTD=YEAR: 2002
EXTT0=
EXTT1=
EXTT2=
EXTT3=
EXTT4=
EXTT5=
EXTT6=
EXTT7=
EXTT8=
EXTT9=
PLAYORDER=
